<?xml version="1.0" encoding="utf-8"?>
<!-- Generator: Adobe Illustrator 27.6.1, SVG Export Plug-In . SVG Version: 6.00 Build 0)  -->
<svg version="1.1" id="图层_1" xmlns="http://www.w3.org/2000/svg" xmlns:xlink="http://www.w3.org/1999/xlink" x="0px" y="0px"
	 viewBox="0 0 200 200" style="enable-background:new 0 0 200 200;" xml:space="preserve">
<style type="text/css">
	.st0{fill:#1677FF;}
</style>
<g>
	<path class="st0" d="M165.6,12.5H34.4c-12.1,0-21.9,9.8-21.9,21.9v131.2c0,12.1,9.8,21.9,21.9,21.9h131.2
		c12.1,0,21.9-9.8,21.9-21.9V34.4C187.5,22.3,177.7,12.5,165.6,12.5z M168.8,165.6c0,1.7-1.4,3.1-3.1,3.1H34.4
		c-1.7,0-3.1-1.4-3.1-3.1V34.4c0-1.7,1.4-3.1,3.1-3.1h131.2c1.7,0,3.1,1.4,3.1,3.1V165.6z"/>
	<g>
		<path class="st0" d="M61.9,128.5c0,0.1,0,0.2-0.2,0.5c-0.2,0.1-0.9,0.2-2.3,0.2h-6c-1.9,0-2.4-0.1-2.4-0.1
			c-0.2-0.1-0.3-0.1-0.4-0.2c0,0-0.2-0.2-0.4-0.8c-0.1-0.2-0.3-0.8-0.3-2.9v-51c0-1.5,0.2-2.2,0.3-2.4c0.2-0.4,0.3-0.6,0.3-0.6
			c0,0,0.2-0.1,0.8-0.3c0.4-0.1,1.1-0.2,2.3-0.2h6c0.8,0,1.2,0.1,1.3,0.2c0.2,0.3,0.3,0.6,0.4,0.9c0.1,0.6,0.2,1.2,0.2,1.9l0.2,1.8
			h14l-0.4-7.1c-0.1-2.5-0.6-4.3-1.5-5.5c-0.8-1.2-1.8-2.1-3-2.7c-0.9-0.5-2-0.9-3-1.2c-1.1-0.3-2.3-0.5-3.5-0.5H48.2
			c-1.3,0-2.7,0.2-4,0.6c-1.4,0.4-2.7,1.2-3.8,2.1c-1.1,0.9-1.9,1.8-2.4,2.7c-0.6,0.9-1,2-1.2,3.1c-0.2,1-0.2,1.9-0.2,2.7v60.2
			c0,0.9,0.1,1.9,0.3,3c0.2,1.2,0.6,2.3,1.1,3.3c0.5,1,1.4,1.9,2.5,2.9c1.2,1,2.7,1.7,4.5,2.1c1.6,0.3,3,0.5,4.1,0.5h15
			c1.3,0,2.7-0.2,4.2-0.6c1.5-0.4,2.7-1,3.7-1.6c1.1-0.7,2-1.6,2.6-2.6c0.6-1.1,1-2.3,1-3.7l0.3-9.3H62.2L61.9,128.5z"/>
		<path class="st0" d="M117.6,62.7L117.6,62.7c-0.9-1.2-2.1-2.2-3.8-3c-1.6-0.8-3.4-1.1-5.3-1.1h-29v82.9h29.2c2.7,0,4.6-0.4,6-1.2
			c1.3-0.7,2.3-1.7,3.1-2.8c0.8-1.1,1.4-2.7,1.9-4.7c0.5-1.9,0.7-4.1,0.7-6.5V72.1c0-1.4-0.3-3-0.8-4.9
			C119.1,65.3,118.4,63.8,117.6,62.7z M106.6,98.3v26.3c0,2.5-0.2,3.1-0.2,3.1c0,0.1-0.2,0.4-0.8,1.1c-0.2,0.2-0.4,0.4-1.2,0.4H92.6
			V70.9h11.8c1,0,1.2,0.3,1.3,0.5c0.4,0.6,0.6,1.2,0.7,1.8C106.5,74.1,106.6,95.3,106.6,98.3z"/>
		<path class="st0" d="M149.9,123.7l-0.2,4.8c0,0.1,0,0.2-0.2,0.5c-0.2,0.1-0.9,0.2-2.3,0.2h-6c-1.9,0-2.4-0.1-2.4-0.1
			c-0.2-0.1-0.3-0.1-0.4-0.2c0,0-0.2-0.2-0.5-0.8c-0.1-0.2-0.3-0.8-0.3-2.9v-51c0-1.5,0.2-2.2,0.3-2.4c0.2-0.4,0.3-0.6,0.3-0.6
			c0,0,0.2-0.1,0.8-0.3c0.4-0.1,1.1-0.2,2.3-0.2h6c0.8,0,1.2,0.1,1.3,0.2c0.2,0.3,0.3,0.6,0.4,0.9c0.1,0.6,0.2,1.2,0.2,1.9l0.2,1.8
			h14l-0.4-7.1c-0.1-2.5-0.6-4.3-1.5-5.5c-0.8-1.2-1.8-2.1-3-2.7c-0.9-0.5-2-0.9-3-1.2c-1.1-0.3-2.3-0.5-3.5-0.5h-15.9
			c-1.3,0-2.7,0.2-4,0.6c-1.4,0.4-2.7,1.2-3.8,2.1c-1.1,0.9-1.9,1.8-2.4,2.7c-0.6,0.9-1,2-1.2,3.1c-0.2,1-0.2,1.9-0.2,2.7v60.2
			c0,0.9,0.1,1.9,0.3,3c0.2,1.2,0.6,2.3,1.1,3.3c0.5,1,1.4,1.9,2.5,2.9c1.2,1,2.7,1.7,4.5,2.1c1.6,0.3,3,0.5,4.1,0.5h15
			c1.3,0,2.7-0.2,4.2-0.6c1.5-0.4,2.7-1,3.7-1.6c1.1-0.7,2-1.6,2.6-2.6c0.7-1.2,1-7.6,1-9.6l0.1-3.5L149.9,123.7z"/>
	</g>
</g>
</svg>
