<?xml version="1.0" standalone="no"?><!DOCTYPE svg PUBLIC "-//W3C//DTD SVG 1.1//EN" "http://www.w3.org/Graphics/SVG/1.1/DTD/svg11.dtd"><svg t="1737299962791" class="icon" viewBox="0 0 1024 1024" version="1.1" xmlns="http://www.w3.org/2000/svg" p-id="27402" xmlns:xlink="http://www.w3.org/1999/xlink" width="200" height="200"><path d="M960 32H64a31.36 31.36 0 0 0-32 32v896a31.36 31.36 0 0 0 32 32h896a31.36 31.36 0 0 0 32-32V64a31.36 31.36 0 0 0-32-32zM928 896a31.36 31.36 0 0 1-30.72 30.72H128a31.36 31.36 0 0 1-32-30.72V128a31.36 31.36 0 0 1 32-32h768a31.36 31.36 0 0 1 32 32z" p-id="27403" fill="#1677ff"></path><path d="M188.16 737.28h92.16V542.72h191.36V464.64H280.32V356.48h222.08V279.04H188.16v458.24zM743.68 576a143.36 143.36 0 0 1-12.8 73.6 50.56 50.56 0 0 1-43.52 17.28A49.92 49.92 0 0 1 640 640a128 128 0 0 1-11.52-55.68l-87.04 10.24a155.52 155.52 0 0 0 37.12 111.36 138.88 138.88 0 0 0 104.32 37.76 162.56 162.56 0 0 0 92.8-24.32 120.32 120.32 0 0 0 48.64-64 284.8 284.8 0 0 0 10.24-87.68V279.04h-90.88z" p-id="27404" fill="#1677ff"></path></svg>
