<?xml version="1.0" standalone="no"?><!DOCTYPE svg PUBLIC "-//W3C//DTD SVG 1.1//EN" "http://www.w3.org/Graphics/SVG/1.1/DTD/svg11.dtd"><svg t="1737381843737" class="icon" viewBox="0 0 1024 1024" version="1.1" xmlns="http://www.w3.org/2000/svg" p-id="2307" xmlns:xlink="http://www.w3.org/1999/xlink" width="200" height="200"><path d="M176 64A112 112 0 0 0 64 176v672c0 61.824 50.176 112 112 112h672A112 112 0 0 0 960 848V176A112 112 0 0 0 848 64H176zM160 176a16 16 0 0 1 16-16h672a16 16 0 0 1 16 16v672a16 16 0 0 1-16 16H176a16 16 0 0 1-16-16V176z m106.24 506.112V335.36h243.52v81.024h-159.36v55.68h147.072V552.32H350.4v129.792H266.304z m311.36-13.632c19.008 13.824 41.6 20.16 66.624 20.16 34.048 0 63.36-8.896 84.352-30.144 20.608-20.992 29.12-50.24 29.12-84.096V335.36h-85.248v237.888c0 15.872-3.456 23.808-6.72 27.584-2.688 3.2-7.68 6.4-19.2 6.4-9.344 0-14.592-2.112-17.664-4.288a15.808 15.808 0 0 1-5.504-8l-4.864-14.592H534.912l4.16 24.832c4.48 26.368 17.28 48 38.528 63.36z" fill="#1677ff" p-id="2308"></path></svg>
